v 10 0 0
v 9.98027 0 -0.627905
v 9.92115 0 -1.25333
v 9.82287 0 -1.87381
v 9.68583 0 -2.4869
v 9.51057 0 -3.09017
v 9.29776 0 -3.68125
v 9.04827 0 -4.25779
v 8.76307 0 -4.81754
v 8.44328 0 -5.35827
v 8.09017 0 -5.87785
v 7.70513 0 -6.37424
v 7.28969 0 -6.84547
v 6.84547 0 -7.28969
v 6.37424 0 -7.70513
v 5.87785 0 -8.09017
v 5.35827 0 -8.44328
v 4.81754 0 -8.76307
v 4.25779 0 -9.04827
v 3.68125 0 -9.29776
v 3.09017 0 -9.51057
v 2.4869 0 -9.68583
v 1.87381 0 -9.82287
v 1.25333 0 -9.92115
v 0.627905 0 -9.98027
v 6.12303e-016 0 -10
v -0.627905 0 -9.98027
v -1.25333 0 -9.92115
v -1.87381 0 -9.82287
v -2.4869 0 -9.68583
v -3.09017 0 -9.51057
v -3.68125 0 -9.29776
v -4.25779 0 -9.04827
v -4.81754 0 -8.76307
v -5.35827 0 -8.44328
v -5.87785 0 -8.09017
v -6.37424 0 -7.70513
v -6.84547 0 -7.28969
v -7.28969 0 -6.84547
v -7.70513 0 -6.37424
v -8.09017 0 -5.87785
v -8.44328 0 -5.35827
v -8.76307 0 -4.81754
v -9.04827 0 -4.25779
v -9.29776 0 -3.68125
v -9.51057 0 -3.09017
v -9.68583 0 -2.4869
v -9.82287 0 -1.87381
v -9.92115 0 -1.25333
v -9.98027 0 -0.627905
v -10 0 -1.22461e-015
v -9.98027 0 0.627905
v -9.92115 0 1.25333
v -9.82287 0 1.87381
v -9.68583 0 2.4869
v -9.51057 0 3.09017
v -9.29776 0 3.68125
v -9.04827 0 4.25779
v -8.76307 0 4.81754
v -8.44328 0 5.35827
v -8.09017 0 5.87785
v -7.70513 0 6.37424
v -7.28969 0 6.84547
v -6.84547 0 7.28969
v -6.37424 0 7.70513
v -5.87785 0 8.09017
v -5.35827 0 8.44328
v -4.81754 0 8.76307
v -4.25779 0 9.04827
v -3.68125 0 9.29776
v -3.09017 0 9.51057
v -2.4869 0 9.68583
v -1.87381 0 9.82287
v -1.25333 0 9.92115
v -0.627905 0 9.98027
v -1.83691e-015 0 10
v 0.627905 0 9.98027
v 1.25333 0 9.92115
v 1.87381 0 9.82287
v 2.4869 0 9.68583
v 3.09017 0 9.51057
v 3.68125 0 9.29776
v 4.25779 0 9.04827
v 4.81754 0 8.76307
v 5.35827 0 8.44328
v 5.87785 0 8.09017
v 6.37424 0 7.70513
v 6.84547 0 7.28969
v 7.28969 0 6.84547
v 7.70513 0 6.37424
v 8.09017 0 5.87785
v 8.44328 0 5.35827
v 8.76307 0 4.81754
v 9.04827 0 4.25779
v 9.29776 0 3.68125
v 9.51057 0 3.09017
v 9.68583 0 2.4869
v 9.82287 0 1.87381
v 9.92115 0 1.25333
v 9.98027 0 0.627905
v 10 50 0
v 9.98027 50 -0.627905
v 9.92115 50 -1.25333
v 9.82287 50 -1.87381
v 9.68583 50 -2.4869
v 9.51057 50 -3.09017
v 9.29776 50 -3.68125
v 9.04827 50 -4.25779
v 8.76307 50 -4.81754
v 8.44328 50 -5.35827
v 8.09017 50 -5.87785
v 7.70513 50 -6.37424
v 7.28969 50 -6.84547
v 6.84547 50 -7.28969
v 6.37424 50 -7.70513
v 5.87785 50 -8.09017
v 5.35827 50 -8.44328
v 4.81754 50 -8.76307
v 4.25779 50 -9.04827
v 3.68125 50 -9.29776
v 3.09017 50 -9.51057
v 2.4869 50 -9.68583
v 1.87381 50 -9.82287
v 1.25333 50 -9.92115
v 0.627905 50 -9.98027
v 6.12303e-016 50 -10
v -0.627905 50 -9.98027
v -1.25333 50 -9.92115
v -1.87381 50 -9.82287
v -2.4869 50 -9.68583
v -3.09017 50 -9.51057
v -3.68125 50 -9.29776
v -4.25779 50 -9.04827
v -4.81754 50 -8.76307
v -5.35827 50 -8.44328
v -5.87785 50 -8.09017
v -6.37424 50 -7.70513
v -6.84547 50 -7.28969
v -7.28969 50 -6.84547
v -7.70513 50 -6.37424
v -8.09017 50 -5.87785
v -8.44328 50 -5.35827
v -8.76307 50 -4.81754
v -9.04827 50 -4.25779
v -9.29776 50 -3.68125
v -9.51057 50 -3.09017
v -9.68583 50 -2.4869
v -9.82287 50 -1.87381
v -9.92115 50 -1.25333
v -9.98027 50 -0.627905
v -10 50 -1.22461e-015
v -9.98027 50 0.627905
v -9.92115 50 1.25333
v -9.82287 50 1.87381
v -9.68583 50 2.4869
v -9.51057 50 3.09017
v -9.29776 50 3.68125
v -9.04827 50 4.25779
v -8.76307 50 4.81754
v -8.44328 50 5.35827
v -8.09017 50 5.87785
v -7.70513 50 6.37424
v -7.28969 50 6.84547
v -6.84547 50 7.28969
v -6.37424 50 7.70513
v -5.87785 50 8.09017
v -5.35827 50 8.44328
v -4.81754 50 8.76307
v -4.25779 50 9.04827
v -3.68125 50 9.29776
v -3.09017 50 9.51057
v -2.4869 50 9.68583
v -1.87381 50 9.82287
v -1.25333 50 9.92115
v -0.627905 50 9.98027
v -1.83691e-015 50 10
v 0.627905 50 9.98027
v 1.25333 50 9.92115
v 1.87381 50 9.82287
v 2.4869 50 9.68583
v 3.09017 50 9.51057
v 3.68125 50 9.29776
v 4.25779 50 9.04827
v 4.81754 50 8.76307
v 5.35827 50 8.44328
v 5.87785 50 8.09017
v 6.37424 50 7.70513
v 6.84547 50 7.28969
v 7.28969 50 6.84547
v 7.70513 50 6.37424
v 8.09017 50 5.87785
v 8.44328 50 5.35827
v 8.76307 50 4.81754
v 9.04827 50 4.25779
v 9.29776 50 3.68125
v 9.51057 50 3.09017
v 9.68583 50 2.4869
v 9.82287 50 1.87381
v 9.92115 50 1.25333
v 9.98027 50 0.627905
v 0 0 0
v 0 50 0
vn 1 0 0
vn 0.998027 0 -0.0627905
vn 0.992115 0 -0.125333
vn 0.982287 0 -0.187381
vn 0.968583 0 -0.24869
vn 0.951057 0 -0.309017
vn 0.929776 0 -0.368125
vn 0.904827 0 -0.425779
vn 0.876307 0 -0.481754
vn 0.844328 0 -0.535827
vn 0.809017 0 -0.587785
vn 0.770513 0 -0.637424
vn 0.728969 0 -0.684547
vn 0.684547 0 -0.728969
vn 0.637424 0 -0.770513
vn 0.587785 0 -0.809017
vn 0.535827 0 -0.844328
vn 0.481754 0 -0.876307
vn 0.425779 0 -0.904827
vn 0.368125 0 -0.929776
vn 0.309017 0 -0.951057
vn 0.24869 0 -0.968583
vn 0.187381 0 -0.982287
vn 0.125333 0 -0.992115
vn 0.0627905 0 -0.998027
vn 6.12303e-017 0 -1
vn -0.0627905 0 -0.998027
vn -0.125333 0 -0.992115
vn -0.187381 0 -0.982287
vn -0.24869 0 -0.968583
vn -0.309017 0 -0.951057
vn -0.368125 0 -0.929776
vn -0.425779 0 -0.904827
vn -0.481754 0 -0.876307
vn -0.535827 0 -0.844328
vn -0.587785 0 -0.809017
vn -0.637424 0 -0.770513
vn -0.684547 0 -0.728969
vn -0.728969 0 -0.684547
vn -0.770513 0 -0.637424
vn -0.809017 0 -0.587785
vn -0.844328 0 -0.535827
vn -0.876307 0 -0.481754
vn -0.904827 0 -0.425779
vn -0.929776 0 -0.368125
vn -0.951057 0 -0.309017
vn -0.968583 0 -0.24869
vn -0.982287 0 -0.187381
vn -0.992115 0 -0.125333
vn -0.998027 0 -0.0627905
vn -1 0 -1.22461e-016
vn -0.998027 0 0.0627905
vn -0.992115 0 0.125333
vn -0.982287 0 0.187381
vn -0.968583 0 0.24869
vn -0.951057 0 0.309017
vn -0.929776 0 0.368125
vn -0.904827 0 0.425779
vn -0.876307 0 0.481754
vn -0.844328 0 0.535827
vn -0.809017 0 0.587785
vn -0.770513 0 0.637424
vn -0.728969 0 0.684547
vn -0.684547 0 0.728969
vn -0.637424 0 0.770513
vn -0.587785 0 0.809017
vn -0.535827 0 0.844328
vn -0.481754 0 0.876307
vn -0.425779 0 0.904827
vn -0.368125 0 0.929776
vn -0.309017 0 0.951057
vn -0.24869 0 0.968583
vn -0.187381 0 0.982287
vn -0.125333 0 0.992115
vn -0.0627905 0 0.998027
vn -1.83691e-016 0 1
vn 0.0627905 -0 0.998027
vn 0.125333 -0 0.992115
vn 0.187381 -0 0.982287
vn 0.24869 -0 0.968583
vn 0.309017 -0 0.951057
vn 0.368125 -0 0.929776
vn 0.425779 -0 0.904827
vn 0.481754 -0 0.876307
vn 0.535827 -0 0.844328
vn 0.587785 -0 0.809017
vn 0.637424 -0 0.770513
vn 0.684547 -0 0.728969
vn 0.728969 -0 0.684547
vn 0.770513 -0 0.637424
vn 0.809017 -0 0.587785
vn 0.844328 -0 0.535827
vn 0.876307 -0 0.481754
vn 0.904827 -0 0.425779
vn 0.929776 -0 0.368125
vn 0.951057 -0 0.309017
vn 0.968583 -0 0.24869
vn 0.982287 -0 0.187381
vn 0.992115 -0 0.125333
vn 0.998027 -0 0.0627905
vn 1 0 0
vn 0.998027 0 -0.0627905
vn 0.992115 0 -0.125333
vn 0.982287 0 -0.187381
vn 0.968583 0 -0.24869
vn 0.951057 0 -0.309017
vn 0.929776 0 -0.368125
vn 0.904827 0 -0.425779
vn 0.876307 0 -0.481754
vn 0.844328 0 -0.535827
vn 0.809017 0 -0.587785
vn 0.770513 0 -0.637424
vn 0.728969 0 -0.684547
vn 0.684547 0 -0.728969
vn 0.637424 0 -0.770513
vn 0.587785 0 -0.809017
vn 0.535827 0 -0.844328
vn 0.481754 0 -0.876307
vn 0.425779 0 -0.904827
vn 0.368125 0 -0.929776
vn 0.309017 0 -0.951057
vn 0.24869 0 -0.968583
vn 0.187381 0 -0.982287
vn 0.125333 0 -0.992115
vn 0.0627905 0 -0.998027
vn 6.12303e-017 0 -1
vn -0.0627905 0 -0.998027
vn -0.125333 0 -0.992115
vn -0.187381 0 -0.982287
vn -0.24869 0 -0.968583
vn -0.309017 0 -0.951057
vn -0.368125 0 -0.929776
vn -0.425779 0 -0.904827
vn -0.481754 0 -0.876307
vn -0.535827 0 -0.844328
vn -0.587785 0 -0.809017
vn -0.637424 0 -0.770513
vn -0.684547 0 -0.728969
vn -0.728969 0 -0.684547
vn -0.770513 0 -0.637424
vn -0.809017 0 -0.587785
vn -0.844328 0 -0.535827
vn -0.876307 0 -0.481754
vn -0.904827 0 -0.425779
vn -0.929776 0 -0.368125
vn -0.951057 0 -0.309017
vn -0.968583 0 -0.24869
vn -0.982287 0 -0.187381
vn -0.992115 0 -0.125333
vn -0.998027 0 -0.0627905
vn -1 0 -1.22461e-016
vn -0.998027 0 0.0627905
vn -0.992115 0 0.125333
vn -0.982287 0 0.187381
vn -0.968583 0 0.24869
vn -0.951057 0 0.309017
vn -0.929776 0 0.368125
vn -0.904827 0 0.425779
vn -0.876307 0 0.481754
vn -0.844328 0 0.535827
vn -0.809017 0 0.587785
vn -0.770513 0 0.637424
vn -0.728969 0 0.684547
vn -0.684547 0 0.728969
vn -0.637424 0 0.770513
vn -0.587785 0 0.809017
vn -0.535827 0 0.844328
vn -0.481754 0 0.876307
vn -0.425779 0 0.904827
vn -0.368125 0 0.929776
vn -0.309017 0 0.951057
vn -0.24869 0 0.968583
vn -0.187381 0 0.982287
vn -0.125333 0 0.992115
vn -0.0627905 0 0.998027
vn -1.83691e-016 0 1
vn 0.0627905 -0 0.998027
vn 0.125333 -0 0.992115
vn 0.187381 -0 0.982287
vn 0.24869 -0 0.968583
vn 0.309017 -0 0.951057
vn 0.368125 -0 0.929776
vn 0.425779 -0 0.904827
vn 0.481754 -0 0.876307
vn 0.535827 -0 0.844328
vn 0.587785 -0 0.809017
vn 0.637424 -0 0.770513
vn 0.684547 -0 0.728969
vn 0.728969 -0 0.684547
vn 0.770513 -0 0.637424
vn 0.809017 -0 0.587785
vn 0.844328 -0 0.535827
vn 0.876307 -0 0.481754
vn 0.904827 -0 0.425779
vn 0.929776 -0 0.368125
vn 0.951057 -0 0.309017
vn 0.968583 -0 0.24869
vn 0.982287 -0 0.187381
vn 0.992115 -0 0.125333
vn 0.998027 -0 0.0627905
vn -0 -1 -0
vn 0 1 0
f 201//201 2//201 1//201
f 201//201 3//201 2//201
f 201//201 4//201 3//201
f 201//201 5//201 4//201
f 201//201 6//201 5//201
f 201//201 7//201 6//201
f 201//201 8//201 7//201
f 201//201 9//201 8//201
f 201//201 10//201 9//201
f 201//201 11//201 10//201
f 201//201 12//201 11//201
f 201//201 13//201 12//201
f 201//201 14//201 13//201
f 201//201 15//201 14//201
f 201//201 16//201 15//201
f 201//201 17//201 16//201
f 201//201 18//201 17//201
f 201//201 19//201 18//201
f 201//201 20//201 19//201
f 201//201 21//201 20//201
f 201//201 22//201 21//201
f 201//201 23//201 22//201
f 201//201 24//201 23//201
f 201//201 25//201 24//201
f 201//201 26//201 25//201
f 201//201 27//201 26//201
f 201//201 28//201 27//201
f 201//201 29//201 28//201
f 201//201 30//201 29//201
f 201//201 31//201 30//201
f 201//201 32//201 31//201
f 201//201 33//201 32//201
f 201//201 34//201 33//201
f 201//201 35//201 34//201
f 201//201 36//201 35//201
f 201//201 37//201 36//201
f 201//201 38//201 37//201
f 201//201 39//201 38//201
f 201//201 40//201 39//201
f 201//201 41//201 40//201
f 201//201 42//201 41//201
f 201//201 43//201 42//201
f 201//201 44//201 43//201
f 201//201 45//201 44//201
f 201//201 46//201 45//201
f 201//201 47//201 46//201
f 201//201 48//201 47//201
f 201//201 49//201 48//201
f 201//201 50//201 49//201
f 201//201 51//201 50//201
f 201//201 52//201 51//201
f 201//201 53//201 52//201
f 201//201 54//201 53//201
f 201//201 55//201 54//201
f 201//201 56//201 55//201
f 201//201 57//201 56//201
f 201//201 58//201 57//201
f 201//201 59//201 58//201
f 201//201 60//201 59//201
f 201//201 61//201 60//201
f 201//201 62//201 61//201
f 201//201 63//201 62//201
f 201//201 64//201 63//201
f 201//201 65//201 64//201
f 201//201 66//201 65//201
f 201//201 67//201 66//201
f 201//201 68//201 67//201
f 201//201 69//201 68//201
f 201//201 70//201 69//201
f 201//201 71//201 70//201
f 201//201 72//201 71//201
f 201//201 73//201 72//201
f 201//201 74//201 73//201
f 201//201 75//201 74//201
f 201//201 76//201 75//201
f 201//201 77//201 76//201
f 201//201 78//201 77//201
f 201//201 79//201 78//201
f 201//201 80//201 79//201
f 201//201 81//201 80//201
f 201//201 82//201 81//201
f 201//201 83//201 82//201
f 201//201 84//201 83//201
f 201//201 85//201 84//201
f 201//201 86//201 85//201
f 201//201 87//201 86//201
f 201//201 88//201 87//201
f 201//201 89//201 88//201
f 201//201 90//201 89//201
f 201//201 91//201 90//201
f 201//201 92//201 91//201
f 201//201 93//201 92//201
f 201//201 94//201 93//201
f 201//201 95//201 94//201
f 201//201 96//201 95//201
f 201//201 97//201 96//201
f 201//201 98//201 97//201
f 201//201 99//201 98//201
f 201//201 100//201 99//201
f 201//201 1//201 100//201
f 202//202 101//202 102//202
f 202//202 102//202 103//202
f 202//202 103//202 104//202
f 202//202 104//202 105//202
f 202//202 105//202 106//202
f 202//202 106//202 107//202
f 202//202 107//202 108//202
f 202//202 108//202 109//202
f 202//202 109//202 110//202
f 202//202 110//202 111//202
f 202//202 111//202 112//202
f 202//202 112//202 113//202
f 202//202 113//202 114//202
f 202//202 114//202 115//202
f 202//202 115//202 116//202
f 202//202 116//202 117//202
f 202//202 117//202 118//202
f 202//202 118//202 119//202
f 202//202 119//202 120//202
f 202//202 120//202 121//202
f 202//202 121//202 122//202
f 202//202 122//202 123//202
f 202//202 123//202 124//202
f 202//202 124//202 125//202
f 202//202 125//202 126//202
f 202//202 126//202 127//202
f 202//202 127//202 128//202
f 202//202 128//202 129//202
f 202//202 129//202 130//202
f 202//202 130//202 131//202
f 202//202 131//202 132//202
f 202//202 132//202 133//202
f 202//202 133//202 134//202
f 202//202 134//202 135//202
f 202//202 135//202 136//202
f 202//202 136//202 137//202
f 202//202 137//202 138//202
f 202//202 138//202 139//202
f 202//202 139//202 140//202
f 202//202 140//202 141//202
f 202//202 141//202 142//202
f 202//202 142//202 143//202
f 202//202 143//202 144//202
f 202//202 144//202 145//202
f 202//202 145//202 146//202
f 202//202 146//202 147//202
f 202//202 147//202 148//202
f 202//202 148//202 149//202
f 202//202 149//202 150//202
f 202//202 150//202 151//202
f 202//202 151//202 152//202
f 202//202 152//202 153//202
f 202//202 153//202 154//202
f 202//202 154//202 155//202
f 202//202 155//202 156//202
f 202//202 156//202 157//202
f 202//202 157//202 158//202
f 202//202 158//202 159//202
f 202//202 159//202 160//202
f 202//202 160//202 161//202
f 202//202 161//202 162//202
f 202//202 162//202 163//202
f 202//202 163//202 164//202
f 202//202 164//202 165//202
f 202//202 165//202 166//202
f 202//202 166//202 167//202
f 202//202 167//202 168//202
f 202//202 168//202 169//202
f 202//202 169//202 170//202
f 202//202 170//202 171//202
f 202//202 171//202 172//202
f 202//202 172//202 173//202
f 202//202 173//202 174//202
f 202//202 174//202 175//202
f 202//202 175//202 176//202
f 202//202 176//202 177//202
f 202//202 177//202 178//202
f 202//202 178//202 179//202
f 202//202 179//202 180//202
f 202//202 180//202 181//202
f 202//202 181//202 182//202
f 202//202 182//202 183//202
f 202//202 183//202 184//202
f 202//202 184//202 185//202
f 202//202 185//202 186//202
f 202//202 186//202 187//202
f 202//202 187//202 188//202
f 202//202 188//202 189//202
f 202//202 189//202 190//202
f 202//202 190//202 191//202
f 202//202 191//202 192//202
f 202//202 192//202 193//202
f 202//202 193//202 194//202
f 202//202 194//202 195//202
f 202//202 195//202 196//202
f 202//202 196//202 197//202
f 202//202 197//202 198//202
f 202//202 198//202 199//202
f 202//202 199//202 200//202
f 202//202 200//202 101//202
f 1//1 102//102 101//101
f 1//1 2//2 102//102
f 2//2 103//103 102//102
f 2//2 3//3 103//103
f 3//3 104//104 103//103
f 3//3 4//4 104//104
f 4//4 105//105 104//104
f 4//4 5//5 105//105
f 5//5 106//106 105//105
f 5//5 6//6 106//106
f 6//6 107//107 106//106
f 6//6 7//7 107//107
f 7//7 108//108 107//107
f 7//7 8//8 108//108
f 8//8 109//109 108//108
f 8//8 9//9 109//109
f 9//9 110//110 109//109
f 9//9 10//10 110//110
f 10//10 111//111 110//110
f 10//10 11//11 111//111
f 11//11 112//112 111//111
f 11//11 12//12 112//112
f 12//12 113//113 112//112
f 12//12 13//13 113//113
f 13//13 114//114 113//113
f 13//13 14//14 114//114
f 14//14 115//115 114//114
f 14//14 15//15 115//115
f 15//15 116//116 115//115
f 15//15 16//16 116//116
f 16//16 117//117 116//116
f 16//16 17//17 117//117
f 17//17 118//118 117//117
f 17//17 18//18 118//118
f 18//18 119//119 118//118
f 18//18 19//19 119//119
f 19//19 120//120 119//119
f 19//19 20//20 120//120
f 20//20 121//121 120//120
f 20//20 21//21 121//121
f 21//21 122//122 121//121
f 21//21 22//22 122//122
f 22//22 123//123 122//122
f 22//22 23//23 123//123
f 23//23 124//124 123//123
f 23//23 24//24 124//124
f 24//24 125//125 124//124
f 24//24 25//25 125//125
f 25//25 126//126 125//125
f 25//25 26//26 126//126
f 26//26 127//127 126//126
f 26//26 27//27 127//127
f 27//27 128//128 127//127
f 27//27 28//28 128//128
f 28//28 129//129 128//128
f 28//28 29//29 129//129
f 29//29 130//130 129//129
f 29//29 30//30 130//130
f 30//30 131//131 130//130
f 30//30 31//31 131//131
f 31//31 132//132 131//131
f 31//31 32//32 132//132
f 32//32 133//133 132//132
f 32//32 33//33 133//133
f 33//33 134//134 133//133
f 33//33 34//34 134//134
f 34//34 135//135 134//134
f 34//34 35//35 135//135
f 35//35 136//136 135//135
f 35//35 36//36 136//136
f 36//36 137//137 136//136
f 36//36 37//37 137//137
f 37//37 138//138 137//137
f 37//37 38//38 138//138
f 38//38 139//139 138//138
f 38//38 39//39 139//139
f 39//39 140//140 139//139
f 39//39 40//40 140//140
f 40//40 141//141 140//140
f 40//40 41//41 141//141
f 41//41 142//142 141//141
f 41//41 42//42 142//142
f 42//42 143//143 142//142
f 42//42 43//43 143//143
f 43//43 144//144 143//143
f 43//43 44//44 144//144
f 44//44 145//145 144//144
f 44//44 45//45 145//145
f 45//45 146//146 145//145
f 45//45 46//46 146//146
f 46//46 147//147 146//146
f 46//46 47//47 147//147
f 47//47 148//148 147//147
f 47//47 48//48 148//148
f 48//48 149//149 148//148
f 48//48 49//49 149//149
f 49//49 150//150 149//149
f 49//49 50//50 150//150
f 50//50 151//151 150//150
f 50//50 51//51 151//151
f 51//51 152//152 151//151
f 51//51 52//52 152//152
f 52//52 153//153 152//152
f 52//52 53//53 153//153
f 53//53 154//154 153//153
f 53//53 54//54 154//154
f 54//54 155//155 154//154
f 54//54 55//55 155//155
f 55//55 156//156 155//155
f 55//55 56//56 156//156
f 56//56 157//157 156//156
f 56//56 57//57 157//157
f 57//57 158//158 157//157
f 57//57 58//58 158//158
f 58//58 159//159 158//158
f 58//58 59//59 159//159
f 59//59 160//160 159//159
f 59//59 60//60 160//160
f 60//60 161//161 160//160
f 60//60 61//61 161//161
f 61//61 162//162 161//161
f 61//61 62//62 162//162
f 62//62 163//163 162//162
f 62//62 63//63 163//163
f 63//63 164//164 163//163
f 63//63 64//64 164//164
f 64//64 165//165 164//164
f 64//64 65//65 165//165
f 65//65 166//166 165//165
f 65//65 66//66 166//166
f 66//66 167//167 166//166
f 66//66 67//67 167//167
f 67//67 168//168 167//167
f 67//67 68//68 168//168
f 68//68 169//169 168//168
f 68//68 69//69 169//169
f 69//69 170//170 169//169
f 69//69 70//70 170//170
f 70//70 171//171 170//170
f 70//70 71//71 171//171
f 71//71 172//172 171//171
f 71//71 72//72 172//172
f 72//72 173//173 172//172
f 72//72 73//73 173//173
f 73//73 174//174 173//173
f 73//73 74//74 174//174
f 74//74 175//175 174//174
f 74//74 75//75 175//175
f 75//75 176//176 175//175
f 75//75 76//76 176//176
f 76//76 177//177 176//176
f 76//76 77//77 177//177
f 77//77 178//178 177//177
f 77//77 78//78 178//178
f 78//78 179//179 178//178
f 78//78 79//79 179//179
f 79//79 180//180 179//179
f 79//79 80//80 180//180
f 80//80 181//181 180//180
f 80//80 81//81 181//181
f 81//81 182//182 181//181
f 81//81 82//82 182//182
f 82//82 183//183 182//182
f 82//82 83//83 183//183
f 83//83 184//184 183//183
f 83//83 84//84 184//184
f 84//84 185//185 184//184
f 84//84 85//85 185//185
f 85//85 186//186 185//185
f 85//85 86//86 186//186
f 86//86 187//187 186//186
f 86//86 87//87 187//187
f 87//87 188//188 187//187
f 87//87 88//88 188//188
f 88//88 189//189 188//188
f 88//88 89//89 189//189
f 89//89 190//190 189//189
f 89//89 90//90 190//190
f 90//90 191//191 190//190
f 90//90 91//91 191//191
f 91//91 192//192 191//191
f 91//91 92//92 192//192
f 92//92 193//193 192//192
f 92//92 93//93 193//193
f 93//93 194//194 193//193
f 93//93 94//94 194//194
f 94//94 195//195 194//194
f 94//94 95//95 195//195
f 95//95 196//196 195//195
f 95//95 96//96 196//196
f 96//96 197//197 196//196
f 96//96 97//97 197//197
f 97//97 198//198 197//197
f 97//97 98//98 198//198
f 98//98 199//199 198//198
f 98//98 99//99 199//199
f 99//99 200//200 199//199
f 99//99 100//100 200//200
f 100//100 101//101 200//200
f 100//100 1//1 101//101
